<?xml version="1.0" encoding="UTF-8"?>
<svg id="Layer_1" xmlns="http://www.w3.org/2000/svg" width="1400" height="200.1" version="1.1" viewBox="0 0 1400 200.1">
  <!-- Generator: Adobe Illustrator 29.7.1, SVG Export Plug-In . SVG Version: 2.1.1 Build 8)  -->
  <path d="M131.2,0l-54.8,95.6,59,101.1h-46.8l-49.3-94.2v94.2H0V0h39.1v91.2L86.5,0h44.6ZM141.9,49.3h36.4v147.4h-36.4V49.3ZM141.7,0h37.5v31.7h-37.5V0ZM195.5,196.8h36.4V0h-36.4v196.8ZM280.2,122.9c0,58.4,21.8,77.2,60.4,77.2s60.1-18.7,60.1-77.2-21.8-76.9-60.1-76.9-60.4,18.5-60.4,76.9M364.3,122.9c0,42.2-8.3,52.6-23.7,52.6s-24-10.5-24-52.6,8.5-52.4,24-52.4,23.7,10.2,23.7,52.4M407.1,54.8v136.5c18.6-8.8,28.8-29.3,28.8-68.4s-10.2-59.4-28.8-68.2M245,122.9c0,39.1,10.2,59.6,28.8,68.4V54.8c-18.6,8.7-28.8,29.1-28.8,68.2M528.3,196.8h43.3L622.3,0h-40.2l-22,97.8c-3.6,17.4-6.6,33.1-9.4,52.9h-1.1c-3-19.8-5.5-35.5-9.4-52.9L517.3,0h-40.8l51.8,196.8ZM729.9,130.9h-82.1c1.1,35.3,8.3,45.5,23.4,45.5s20-8.3,21.1-22.1h36.1c-1.9,32.1-23.8,45.7-57,45.7s-59.2-19.8-59.2-77.2,21.5-76.9,59.8-76.9,57.9,18.5,57.9,75.5v9.4ZM694.1,108.6c-1.4-29.8-8.5-38.9-22.1-38.9s-22,8.8-24,38.9h46ZM856.2,89.9c0-32.2-16.8-43.8-40.2-43.8s-29.5,8.8-35.3,20.9h-.8l-.6-17.6h-36.1l.3,24.5v122.9h36.4v-93.4c0-21.5,9.9-31.4,23.4-31.4s16.3,6.1,16.3,23.4v101.4h36.7v-106.9M944.2,49.4h-22.6V14.7h-36.4v34.7h-18.5v25.9h18.5v86.3c0,27.8,11,35.3,35.6,35.3h21.5v-25.9h-10.2c-6.1,0-10.5-3.3-10.5-11.8v-83.8h22.6v-25.9ZM1069.2,49.4h-36.4v90.9c0,24.8-9.1,33.9-22.3,33.9s-15.7-5.8-15.7-25.9V49.4h-36.4v105.5c0,32.2,14.6,45.2,39.4,45.2s28.4-8.8,34.2-20.9h.8l.5,17.6h36.4l-.6-24.5V49.4ZM1154,49.4c-16.3,0-25.6,9.9-29.2,22.3h-.8l-.3-22.3h-36.1l.3,22.6v124.8h36.1v-73.6c0-27.6,9.6-38.6,24.8-38.6h13v-35.3h-7.7ZM1282.4,131h-82.1c1.1,35.3,8.3,45.5,23.4,45.5s20-8.3,21.1-22.1h36.1c-1.9,32.1-23.8,45.7-57,45.7s-59.2-19.8-59.2-77.2,21.5-76.9,59.8-76.9,57.9,18.5,57.9,75.5v9.4ZM1246.6,108.7c-1.4-29.8-8.5-38.9-22-38.9s-22,8.8-24,38.9h46ZM1289.2,154.4c.8,32.8,20.1,45.7,55.1,45.7s55.7-14.6,55.7-46.8-19.8-37.2-46.8-45.7l-10.5-3.3c-8.8-2.8-14.6-6.9-14.6-17.4s6.3-17.9,16.3-17.9,16,5.8,16.5,19.3h36.4c-.6-31.1-20.9-42.2-52.4-42.2s-52.9,16-52.9,44.4,15.2,36.9,44.9,46.3l10.5,3.3c10.5,3.6,16,7.7,16,18.5s-5.8,18.7-18.7,18.7-18.5-7.7-18.7-22.9h-36.7"/>
</svg>